# xmcd
#
# Track frame offsets:
#	150
#	12077
#	30807
#	46483
#	58084
#	71112
#	80311
#	94132
#	106812
#	118585
#	131609
#	142951
#	156342
#	172065
#
# Disc length: 2513
#
# Revision: 1
# Processed by: cddbd v1.5.1PL0 Copyright (c) Steve Scherf et al.
# Submitted via: CDex 1.51
# Normalized: r0:TDELIM( - ),TSWAP
#
DISCID=b509cf0e
DTITLE=COMPILATIONS - Rhythm'n'Blues - CD1
DYEAR=1900
DGENRE=Blues
TTITLE0=Sam and Dave - Hold on I'm comin'
TTITLE1=Thelma Houston - Don't leave me this way
TTITLE2=Eddie Floyd - Knock on wood
TTITLE3=Martha Reeves - Dancing in the street
TTITLE4=The Temptations - Get ready
TTITLE5=Gladys Knight and The Pips - Every beat of my heart
TTITLE6=Aaron Neville - Tell it like it is
TTITLE7=Mary Wells - My guy
TTITLE8=Percy Sledge - The dock of the bay
TTITLE9=The Supremes - You keep me hangin' on
TTITLE10=Tom Jones - Try a little tenderness
TTITLE11=Ben E. King - Stand by me
TTITLE12=Erick Bamy - Don't play that song
TTITLE13=The Bar-Kays - Son of shaft
EXTD=
EXTT0=
EXTT1=
EXTT2=
EXTT3=
EXTT4=
EXTT5=
EXTT6=
EXTT7=
EXTT8=
EXTT9=
EXTT10=
EXTT11=
EXTT12=
EXTT13=
PLAYORDER=
